<svg width="399" height="431" viewBox="0 0 399 431" fill="none" xmlns="http://www.w3.org/2000/svg">
<path d="M5.4 103V0.0999926H87.6V18.4H27.9V41.35H80.7V59.5H27.9V84.55H88.5V103H5.4ZM97.7426 103L134.793 48.85L101.343 0.0999926H128.643L149.943 32.65H150.693L171.843 0.0999926H197.493L163.893 48.85L200.943 103H173.643L148.893 64.9H148.143L123.543 103H97.7426ZM213.701 103V0.0999926H267.251C274.651 0.0999926 280.801 1.49999 285.701 4.29999C290.701 6.99999 294.451 10.85 296.951 15.85C299.551 20.75 300.851 26.6 300.851 33.4C300.851 40.2 299.501 46.15 296.801 51.25C294.201 56.25 290.351 60.15 285.251 62.95C280.151 65.75 273.901 67.15 266.501 67.15H236.051V103H213.701ZM236.051 48.85H263.501C268.201 48.85 271.801 47.5 274.301 44.8C276.901 42.1 278.201 38.35 278.201 33.55C278.201 30.25 277.651 27.5 276.551 25.3C275.451 23.1 273.801 21.4 271.601 20.2C269.501 19 266.801 18.4 263.501 18.4H236.051V48.85ZM315.8 103V0.0999926H398V18.4H338.3V41.35H391.1V59.5H338.3V84.55H398.9V103H315.8ZM5.4 266V163.1H61.8C69.4 163.1 75.7 164.45 80.7 167.15C85.8 169.85 89.6 173.65 92.1 178.55C94.6 183.35 95.85 188.9 95.85 195.2C95.85 201.9 94.35 207.85 91.35 213.05C88.35 218.15 84 222.05 78.3 224.75L99.3 266H74.55L56.4 228.5H27.75V266H5.4ZM27.75 210.8H58.8C63.3 210.8 66.8 209.45 69.3 206.75C71.8 203.95 73.05 200.2 73.05 195.5C73.05 192.5 72.5 189.95 71.4 187.85C70.3 185.65 68.7 184 66.6 182.9C64.5 181.8 61.9 181.25 58.8 181.25H27.75V210.8ZM114.97 266V163.1H137.32V266H114.97ZM160.088 266V163.1H242.288V181.4H182.588V204.35H235.388V222.5H182.588V247.55H243.188V266H160.088ZM174.638 155.15L191.438 135.2H211.838L228.488 155.15H210.488L197.438 139.85L205.838 140L192.638 155.15H174.638ZM262.48 266V163.1H283.03L324.43 218.6C325.03 219.3 325.78 220.3 326.68 221.6C327.58 222.8 328.43 224 329.23 225.2C330.03 226.4 330.58 227.35 330.88 228.05H331.63C331.63 226.35 331.63 224.7 331.63 223.1C331.63 221.4 331.63 219.9 331.63 218.6V163.1H352.78V266H332.23L289.93 209.15C288.93 207.75 287.88 206.2 286.78 204.5C285.68 202.8 284.88 201.5 284.38 200.6H283.63C283.63 202.1 283.63 203.6 283.63 205.1C283.63 206.5 283.63 207.85 283.63 209.15V266H262.48ZM51.45 430.8C40.75 430.8 31.6 428.95 24 425.25C16.4 421.45 10.6 415.6 6.6 407.7C2.7 399.8 0.75 389.75 0.75 377.55C0.75 359.55 5.15 346.2 13.95 337.5C22.85 328.7 35.35 324.3 51.45 324.3C60.25 324.3 68.15 325.8 75.15 328.8C82.15 331.8 87.65 336.3 91.65 342.3C95.75 348.3 97.8 355.85 97.8 364.95H75.3C75.3 360.15 74.3 356.1 72.3 352.8C70.4 349.5 67.65 347 64.05 345.3C60.55 343.5 56.45 342.6 51.75 342.6C45.35 342.6 40.05 343.85 35.85 346.35C31.75 348.85 28.7 352.55 26.7 357.45C24.8 362.25 23.85 368.15 23.85 375.15V379.8C23.85 387 24.85 393.05 26.85 397.95C28.85 402.75 31.85 406.4 35.85 408.9C39.95 411.3 45.2 412.5 51.6 412.5C56.6 412.5 60.95 411.65 64.65 409.95C68.35 408.25 71.2 405.75 73.2 402.45C75.2 399.15 76.2 395.1 76.2 390.3H97.8C97.8 399.4 95.8 406.95 91.8 412.95C87.9 418.95 82.45 423.45 75.45 426.45C68.45 429.35 60.45 430.8 51.45 430.8ZM115.41 429V326.1H137.76V429H115.41ZM150.027 429L189.627 326.1H217.227L256.827 429H232.677L225.327 408.75H180.477L173.127 429H150.027ZM186.927 390.75H218.877L209.727 365.4C209.327 364.3 208.827 363 208.227 361.5C207.727 359.9 207.177 358.15 206.577 356.25C205.977 354.35 205.377 352.5 204.777 350.7C204.277 348.8 203.777 347.1 203.277 345.6H202.377C201.877 347.5 201.227 349.75 200.427 352.35C199.627 354.85 198.827 357.3 198.027 359.7C197.227 362 196.577 363.9 196.077 365.4L186.927 390.75Z" fill="black" fill-opacity="0.24"/>
</svg>
