<svg width="442" height="297" viewBox="0 0 442 297" fill="none" xmlns="http://www.w3.org/2000/svg">
<path d="M11.4 105V2.09999H87.3V20.4H33.75V45.9H81.6V64.05H33.75V105H11.4ZM152.711 106.8C141.811 106.8 132.411 104.85 124.511 100.95C116.611 97.05 110.561 91.15 106.361 83.25C102.161 75.35 100.061 65.45 100.061 53.55C100.061 41.45 102.161 31.5 106.361 23.7C110.561 15.8 116.611 9.94999 124.511 6.14999C132.411 2.25 141.811 0.299998 152.711 0.299998C163.811 0.299998 173.261 2.25 181.061 6.14999C188.961 9.94999 195.011 15.8 199.211 23.7C203.411 31.5 205.511 41.45 205.511 53.55C205.511 65.45 203.411 75.35 199.211 83.25C195.011 91.15 188.961 97.05 181.061 100.95C173.261 104.85 163.811 106.8 152.711 106.8ZM152.711 88.5C157.611 88.5 161.911 87.8 165.611 86.4C169.311 85 172.411 82.9 174.911 80.1C177.411 77.3 179.311 73.9 180.611 69.9C181.911 65.8 182.561 61.15 182.561 55.95V51.3C182.561 46 181.911 41.3 180.611 37.2C179.311 33.1 177.411 29.7 174.911 27C172.411 24.2 169.311 22.1 165.611 20.7C161.911 19.3 157.611 18.6 152.711 18.6C147.911 18.6 143.661 19.3 139.961 20.7C136.261 22.1 133.161 24.2 130.661 27C128.161 29.7 126.261 33.1 124.961 37.2C123.761 41.3 123.161 46 123.161 51.3V55.95C123.161 61.15 123.761 65.8 124.961 69.9C126.261 73.9 128.161 77.3 130.661 80.1C133.161 82.9 136.261 85 139.961 86.4C143.661 87.8 147.911 88.5 152.711 88.5ZM223.656 105V2.09999H280.056C287.656 2.09999 293.956 3.44999 298.956 6.14999C304.056 8.85 307.856 12.65 310.356 17.55C312.856 22.35 314.106 27.9 314.106 34.2C314.106 40.9 312.606 46.85 309.606 52.05C306.606 57.15 302.256 61.05 296.556 63.75L317.556 105H292.806L274.656 67.5H246.006V105H223.656ZM246.006 49.8H277.056C281.556 49.8 285.056 48.45 287.556 45.75C290.056 42.95 291.306 39.2 291.306 34.5C291.306 31.5 290.756 28.95 289.656 26.85C288.556 24.65 286.956 23 284.856 21.9C282.756 20.8 280.156 20.25 277.056 20.25H246.006V49.8ZM333.226 105V2.09999H367.276L381.976 54.75C382.576 56.65 383.176 58.9 383.776 61.5C384.376 64.1 384.976 66.7 385.576 69.3C386.276 71.8 386.826 74.05 387.226 76.05H388.426C388.626 74.35 388.976 72.35 389.476 70.05C389.976 67.65 390.526 65.1 391.126 62.4C391.726 59.7 392.376 57.1 393.076 54.6L407.776 2.09999H441.226V105H419.176V56.25C419.176 51.75 419.176 47.25 419.176 42.75C419.276 38.15 419.376 34.15 419.476 30.75C419.676 27.35 419.776 25.15 419.776 24.15H418.576C418.376 25.25 417.876 27.3 417.076 30.3C416.376 33.2 415.576 36.3 414.676 39.6C413.876 42.9 413.126 45.75 412.426 48.15L396.376 105H376.876L360.676 48.3C360.076 46.2 359.376 43.75 358.576 40.95C357.876 38.05 357.176 35.1 356.476 32.1C355.876 29 355.276 26.35 354.676 24.15H353.476C353.576 26.85 353.676 30.1 353.776 33.9C353.876 37.6 353.976 41.45 354.076 45.45C354.176 49.35 354.226 52.95 354.226 56.25V105H333.226ZM0.9 268L40.5 165.1H68.1L107.7 268H83.55L76.2 247.75H31.35L24 268H0.9ZM37.8 229.75H69.75L60.6 204.4C60.2 203.3 59.7 202 59.1 200.5C58.6 198.9 58.05 197.15 57.45 195.25C56.85 193.35 56.25 191.5 55.65 189.7C55.15 187.8 54.65 186.1 54.15 184.6H53.25C52.75 186.5 52.1 188.75 51.3 191.35C50.5 193.85 49.7 196.3 48.9 198.7C48.1 201 47.45 202.9 46.95 204.4L37.8 229.75ZM163.651 269.8C152.951 269.8 143.801 267.95 136.201 264.25C128.601 260.45 122.801 254.6 118.801 246.7C114.901 238.8 112.951 228.75 112.951 216.55C112.951 198.55 117.351 185.2 126.151 176.5C135.051 167.7 147.551 163.3 163.651 163.3C172.451 163.3 180.351 164.8 187.351 167.8C194.351 170.8 199.851 175.3 203.851 181.3C207.951 187.3 210.001 194.85 210.001 203.95H187.501C187.501 199.15 186.501 195.1 184.501 191.8C182.601 188.5 179.851 186 176.251 184.3C172.751 182.5 168.651 181.6 163.951 181.6C157.551 181.6 152.251 182.85 148.051 185.35C143.951 187.85 140.901 191.55 138.901 196.45C137.001 201.25 136.051 207.15 136.051 214.15V218.8C136.051 226 137.051 232.05 139.051 236.95C141.051 241.75 144.051 245.4 148.051 247.9C152.151 250.3 157.401 251.5 163.801 251.5C168.801 251.5 173.151 250.65 176.851 248.95C180.551 247.25 183.401 244.75 185.401 241.45C187.401 238.15 188.401 234.1 188.401 229.3H210.001C210.001 238.4 208.001 245.95 204.001 251.95C200.101 257.95 194.651 262.45 187.651 265.45C180.651 268.35 172.651 269.8 163.651 269.8ZM163.351 296.2C160.651 296.2 157.801 296.05 154.801 295.75C151.901 295.55 149.351 295.25 147.151 294.85V287.2H161.401C163.401 287.2 164.951 286.95 166.051 286.45C167.151 286.05 167.701 285.1 167.701 283.6C167.701 282.4 167.301 281.5 166.501 280.9C165.701 280.3 164.101 280 161.701 280H155.251L157.501 265.45H169.801L168.751 272.95C171.151 273.05 173.401 273.5 175.501 274.3C177.701 275.1 179.451 276.25 180.751 277.75C182.051 279.25 182.701 281.25 182.701 283.75C182.701 286.25 182.051 288.3 180.751 289.9C179.451 291.6 177.801 292.9 175.801 293.8C173.901 294.7 171.801 295.3 169.501 295.6C167.301 296 165.251 296.2 163.351 296.2ZM216.525 268L256.125 165.1H283.725L323.325 268H299.175L291.825 247.75H246.975L239.625 268H216.525ZM253.425 229.75H285.375L276.225 204.4C275.825 203.3 275.325 202 274.725 200.5C274.225 198.9 273.675 197.15 273.075 195.25C272.475 193.35 271.875 191.5 271.275 189.7C270.775 187.8 270.275 186.1 269.775 184.6H268.875C268.375 186.5 267.725 188.75 266.925 191.35C266.125 193.85 265.325 196.3 264.525 198.7C263.725 201 263.075 202.9 262.575 204.4L253.425 229.75ZM243.075 155.05C243.075 151.75 243.625 148.7 244.725 145.9C245.925 143.1 247.675 140.85 249.975 139.15C252.275 137.45 255.175 136.6 258.675 136.6C261.475 136.6 264.075 137.05 266.475 137.95C268.875 138.85 271.225 139.75 273.525 140.65C275.825 141.55 278.175 142 280.575 142C282.075 142 283.275 141.6 284.175 140.8C285.175 140 285.825 138.6 286.125 136.6H296.775C296.775 139.8 296.175 142.8 294.975 145.6C293.875 148.4 292.175 150.7 289.875 152.5C287.575 154.2 284.675 155.05 281.175 155.05C278.475 155.05 275.875 154.6 273.375 153.7C270.975 152.8 268.625 151.9 266.325 151C264.125 150 261.825 149.5 259.425 149.5C257.925 149.5 256.675 149.95 255.675 150.85C254.775 151.75 254.175 153.15 253.875 155.05H243.075ZM381.226 269.8C370.326 269.8 360.926 267.85 353.026 263.95C345.126 260.05 339.076 254.15 334.876 246.25C330.676 238.35 328.576 228.45 328.576 216.55C328.576 204.45 330.676 194.5 334.876 186.7C339.076 178.8 345.126 172.95 353.026 169.15C360.926 165.25 370.326 163.3 381.226 163.3C392.326 163.3 401.776 165.25 409.576 169.15C417.476 172.95 423.526 178.8 427.726 186.7C431.926 194.5 434.026 204.45 434.026 216.55C434.026 228.45 431.926 238.35 427.726 246.25C423.526 254.15 417.476 260.05 409.576 263.95C401.776 267.85 392.326 269.8 381.226 269.8ZM381.226 251.5C386.126 251.5 390.426 250.8 394.126 249.4C397.826 248 400.926 245.9 403.426 243.1C405.926 240.3 407.826 236.9 409.126 232.9C410.426 228.8 411.076 224.15 411.076 218.95V214.3C411.076 209 410.426 204.3 409.126 200.2C407.826 196.1 405.926 192.7 403.426 190C400.926 187.2 397.826 185.1 394.126 183.7C390.426 182.3 386.126 181.6 381.226 181.6C376.426 181.6 372.176 182.3 368.476 183.7C364.776 185.1 361.676 187.2 359.176 190C356.676 192.7 354.776 196.1 353.476 200.2C352.276 204.3 351.676 209 351.676 214.3V218.95C351.676 224.15 352.276 228.8 353.476 232.9C354.776 236.9 356.676 240.3 359.176 243.1C361.676 245.9 364.776 248 368.476 249.4C372.176 250.8 376.426 251.5 381.226 251.5Z" fill="black"/>
</svg>
