<svg width="57" height="82" viewBox="0 0 57 82" fill="none" xmlns="http://www.w3.org/2000/svg">
<path d="M12.95 29.7C15.63 29.7 17.94 30.55 19.88 32.25L17.39 34.86C16.65 34.3 15.96 33.9 15.32 33.66C14.7 33.4 13.98 33.27 13.16 33.27C11.62 33.27 10.39 33.88 9.47 35.1C8.55 36.3 8.09 38.13 8.09 40.59C8.09 43.25 8.44 45.14 9.14 46.26C9.84 47.36 10.93 47.91 12.41 47.91C13.45 47.91 14.39 47.68 15.23 47.22V42.51H12.53L12.05 39.03H20V49.32C18.92 50.02 17.73 50.56 16.43 50.94C15.13 51.32 13.83 51.51 12.53 51.51C9.37 51.51 6.99 50.59 5.39 48.75C3.79 46.89 2.99 44.17 2.99 40.59C2.99 38.31 3.42 36.35 4.28 34.71C5.16 33.07 6.35 31.83 7.85 30.99C9.37 30.13 11.07 29.7 12.95 29.7ZM34.3559 39.99C35.7359 40.25 36.8559 40.76 37.7159 41.52C38.5959 42.28 39.0359 43.42 39.0359 44.94C39.0359 47.16 38.2359 48.73 36.6359 49.65C35.0559 50.55 32.8359 51 29.9759 51H23.2859V30.21H29.1659C32.0859 30.21 34.3159 30.63 35.8559 31.47C37.3959 32.29 38.1659 33.64 38.1659 35.52C38.1659 36.74 37.7959 37.73 37.0559 38.49C36.3359 39.23 35.4359 39.73 34.3559 39.99ZM28.2059 33.69V38.52H30.0359C32.1159 38.52 33.1559 37.68 33.1559 36C33.1559 35.16 32.8759 34.57 32.3159 34.23C31.7559 33.87 30.8659 33.69 29.6459 33.69H28.2059ZM30.0059 47.43C31.3059 47.43 32.2859 47.24 32.9459 46.86C33.6259 46.46 33.9659 45.73 33.9659 44.67C33.9659 42.75 32.7659 41.79 30.3659 41.79H28.2059V47.43H30.0059ZM45.9416 51.51C44.5616 51.51 43.4816 51.12 42.7016 50.34C41.9416 49.54 41.5616 48.41 41.5616 46.95V28.74L46.3016 28.23V46.77C46.3016 47.43 46.5716 47.76 47.1116 47.76C47.3916 47.76 47.6516 47.71 47.8916 47.61L48.8216 50.97C47.9616 51.33 47.0016 51.51 45.9416 51.51Z" fill="black"/>
<rect x="26.9996" y="53" width="2" height="27" rx="1" transform="rotate(89.6929 26.9996 53)" fill="#BD1515"/>
<rect x="41.9996" y="56" width="2" height="27" rx="1" transform="rotate(89.6929 41.9996 56)" fill="#631010"/>
<rect x="29.0131" y="55.1773" width="2" height="27" rx="1" transform="rotate(-90.3764 29.0131 55.1773)" fill="#BD1515"/>
</svg>
